<?xml version="1.0" encoding="UTF-8"?>
<svg width="60px" height="50px" viewBox="0 0 60 50" version="1.1" xmlns="http://www.w3.org/2000/svg" xmlns:xlink="http://www.w3.org/1999/xlink">
    <!-- Generator: Sketch 53.2 (72643) - https://sketchapp.com -->
    <title>hands</title>
    <desc>Created with Sketch.</desc>
    <defs>
        <rect id="path-1" x="0" y="0" width="70" height="70"></rect>
    </defs>
    <g id="Page-1" stroke="none" stroke-width="1" fill="none" fill-rule="evenodd">
        <g id="hands" transform="translate(-5.000000, -10.000000)">
            <mask id="mask-2" fill="white">
                <use xlink:href="#path-1"></use>
            </mask>
            <g id="Mask"></g>
            <path d="M39.25034,24.7346935 C38.7323035,24.3657838 38.2020712,23.9755028 37.6595952,23.5638857 C36.5921716,22.7539515 34.4928569,22.3291762 31.3830948,22.3291762 L23.9733373,22.3291762 L23.9733373,21.4472409 L31.3830948,21.4472409 C34.6660645,21.4472409 36.9254307,21.9044009 38.1826369,22.8583374 C43.9017109,27.197827 48.1652851,29.0669919 50.9116779,28.5112868 C52.3325004,28.2237977 52.6288503,27.9222218 52.4485071,27.566869 C52.3108807,27.2956865 51.9605744,26.9623985 51.4517252,26.6008793 C51.1328359,26.3743198 50.2936701,25.8545167 50.2762855,25.8421748 C44.0327966,21.4097225 40.1126013,18.4414232 38.4959255,16.9194152 C36.8330731,15.3539346 34.6078235,14.5097029 31.8189629,14.3917582 L16.1791789,14.3917582 L16.1869211,14.6580728 C16.2695496,15.8760561 16.3197625,17.6063954 16.3379217,19.8521632 L16.4329093,23.1195263 C16.8446499,25.8039894 18.7200791,26.9826916 22.1998763,26.7398978 L22.2598536,27.6197433 C19.5273185,27.8103988 17.5935671,27.1493401 16.5069253,25.6655137 L16.5758349,28.0358496 L16.1533068,28.0609949 C11.1315353,28.3598494 7.41575389,27.7583685 5,26.2308574 L5.46201925,25.4829777 C7.63024694,26.853975 11.0379022,27.4353907 15.6795303,27.2037178 L15.5629201,23.192584 C15.5036804,22.7852061 15.4739096,22.350354 15.4739096,21.8882085 C15.4739096,21.1734858 15.4713609,20.5000915 15.4662718,19.8680956 L15.3160407,14.7004768 C15.2982373,14.4403491 15.2789353,14.205067 15.2581387,13.9946684 L15.2102149,13.5098228 L15.2814264,13.5098228 L15.2654613,12.9606588 L8.15909893,10.8460983 L8.40507352,10 L16.1182261,12.2951162 L16.1535399,13.5098338 L31.8371083,13.5102051 C34.8416767,13.6368602 37.2656867,14.5564991 39.089779,16.2737778 C40.6661361,17.757828 44.5684738,20.7126059 50.7770177,25.1202498 C50.7646222,25.1114498 51.6039629,25.6313612 51.9527089,25.8791328 C52.5693743,26.3172516 53.0042058,26.7309586 53.2239972,27.1640408 C53.7537379,28.2078549 52.9837453,28.9914259 51.0826394,29.3760956 C48.4635426,29.9060435 44.8306054,28.5575808 40.1453471,25.3590649 C40.0761117,27.1726553 38.8513909,28.1352505 36.6135118,28.1352505 L25.2809416,28.1352505 L25.2809416,27.2533152 L36.6135118,27.2533152 C38.6310948,27.2533152 39.4429717,26.4663615 39.25034,24.7346935 Z M11.9142439,24.9749822 L10.8972947,24.9749822 L10.8972947,21.0062732 L11.9142439,21.0062732 L11.9142439,24.9749822 Z M31.3818083,49.7526422 C31.7714518,49.9002546 32.1689824,50.0549412 32.5744209,50.2166867 C34.2871922,51.0891577 36.1378131,51.0891577 38.1625533,50.2051132 C40.3588942,49.2461442 43.3157357,48.6119591 47.0376991,48.2959698 L47.1140333,49.2291863 C43.4825059,49.5374977 40.6178338,50.1519143 38.5246385,51.0658477 C36.2598424,52.0547057 34.1273224,52.0547057 32.2014092,51.0715122 C25.2955796,48.3184747 20.8179158,47.7102391 18.8360258,49.1521653 C17.2595973,50.2228574 17.1562754,50.8947082 18.3350568,51.6245705 C27.1866113,55.666831 32.5372452,58.0028618 34.3525934,58.6193437 C36.1015582,59.2132821 38.1586911,59.2132821 40.5072601,58.6157532 L56.6201934,53.5998818 L56.1380169,51.689531 C54.9449877,47.059713 54.1503217,43.9373091 53.7536895,42.3209808 C53.3904398,40.8406904 51.4556965,40.7047537 47.7004437,42.1762101 L47.370475,41.3021775 C50.0677586,40.2452752 52.0663254,39.9376451 53.3007356,40.4484125 L52.976649,39.164403 L53.2869725,38.9887629 C56.1219651,37.3841842 60.0259972,36.5887121 65,36.5887121 L65,37.5251633 C60.3537543,37.5251633 56.7018135,38.2331306 54.045006,39.6369335 L57.0276548,51.4539883 C57.218676,52.1952872 57.4199171,52.9752594 57.6313769,53.7938995 L57.7438404,54.2292878 L57.7292894,54.2338175 L58.0028728,55.3177366 L65,55.3177366 L65,56.2541878 L57.2901456,56.2541878 L56.8493346,54.5077242 L40.7530295,59.5177871 C38.2221053,60.1624026 35.9897019,60.1624026 34.0619212,59.5077393 C32.2022708,58.8762127 26.8376175,56.5338914 17.9334969,52.4674175 L17.8850375,52.4416575 C16.0240303,51.3040802 16.2359727,49.7926172 18.3139563,48.3815672 C20.3916873,46.8695981 24.3900778,47.2254771 30.3938072,49.3874334 C30.1457309,47.113936 31.4022879,45.4757715 34.0619212,44.5725753 C36.8346187,43.6309831 40.2186012,42.6907441 44.2149633,41.7511845 L44.421651,42.6636544 C40.4517314,43.5969972 37.095014,44.5296606 34.3525934,45.4609709 C31.9026991,46.292941 30.9548091,47.6819281 31.3818083,49.7526422 Z M58.805694,41.3690751 L59.7044766,41.1728613 L60.3938664,44.4504406 L59.4950838,44.6466544 L58.805694,41.3690751 Z" id="Combined-Shape" fill="#326F1F" fill-rule="nonzero" mask="url(#mask-2)"></path>
        </g>
    </g>
</svg>