<?xml version="1.0" encoding="UTF-8"?>
<svg width="48px" height="48px" viewBox="0 0 48 48" version="1.1" xmlns="http://www.w3.org/2000/svg" xmlns:xlink="http://www.w3.org/1999/xlink">
    <!-- Generator: Sketch 53.2 (72643) - https://sketchapp.com -->
    <title>hand leaf</title>
    <desc>Created with Sketch.</desc>
    <defs>
        <rect id="path-1" x="0" y="0" width="70" height="70"></rect>
        <path d="M33.8813357,26.8413469 C29.5537767,26.7813339 25.8052038,25.6574397 22.6450298,23.4681635 C19.3494692,21.1850953 17.7085964,17.2774122 17.7085964,11.7869888 L17.7085964,11.5002553 L17.9870117,11.4307123 C22.0107994,10.4256435 25.9147692,11.180591 29.6744755,13.6848738 C32.9145084,15.8430102 34.5861887,19.2843073 34.696894,23.9732159 C35.4399645,21.71972 36.6916982,20.0012667 38.4557582,18.8262533 C41.4635909,16.822782 44.7299514,15.9441449 48.2424514,16.1948188 L48.5617203,16.2176038 L48.5830119,16.5366984 C48.8341638,20.3006894 47.825629,23.5755664 45.5602431,26.3419543 C43.3475054,29.0440507 39.7337354,30.3129329 34.7504688,30.1685552 C34.7039432,30.3005968 34.6592745,30.4350542 34.6164602,30.5719311 L34.6164602,38.112847 C37.0847749,37.9175292 39.1060299,37.3594279 40.6798146,36.4421882 L40.97524,36.2700072 L45.8691262,43.4163664 C50.9158646,43.8326746 55.1709844,44.6812043 58.6356665,45.9632997 L59,46.0981202 L55.0845749,55.0957366 L54.8729748,55.1192272 C46.0652156,56.0970128 39.095428,57.1965449 33.9664707,58.4166592 C28.7138039,59.6662024 24.4283894,58.910613 21.1369699,56.1276927 C15.7384992,51.2242763 12.6767141,48.409893 11.9352568,47.6690829 C11.1091787,46.843726 10.8176859,45.9700108 11.1113379,45.0898238 L11.1302,45.0332869 L11.1659883,44.9856108 C12.0358132,43.8268567 13.4609742,43.8268567 15.3180226,44.8871009 L15.3709682,44.923833 C16.2977612,45.6954863 17.3251351,46.3794804 18.4531977,46.9756341 C18.5685665,44.3714665 19.7369758,42.4358149 21.9408395,41.212515 L22.0240986,41.1663003 L22.1193435,41.1663003 C24.1944782,41.1663003 25.9214986,40.1309927 27.3269471,38.0246603 L27.4529561,37.8358118 L27.6783678,37.8639637 C29.9768503,38.1510232 32.0445571,38.2491332 33.8813357,38.1596471 L33.8813357,30.5248562 C33.8812058,30.5192482 33.8812051,30.5136246 33.8813357,30.507988 L33.8813357,26.8413469 Z M33.8769544,26.1067301 C33.3895791,22.8914192 30.925543,20.5628528 26.4175469,19.1141783 C26.2242978,19.0520764 26.118026,18.8452103 26.1801821,18.6521298 C26.2423383,18.4590494 26.4493851,18.3528704 26.6426342,18.4149722 C30.3675294,19.6119921 32.8170417,21.425475 33.9587347,23.8521181 C33.8256925,19.4633014 32.2593146,16.2893341 29.2667018,14.2960004 C25.7630366,11.9622626 22.1634645,11.2256574 18.4452906,12.0762689 C18.501099,17.1902626 20.044993,20.7731645 23.0639062,22.8645794 C26.0960993,24.9651942 29.6973234,26.0464095 33.8769544,26.1067301 Z M34.6464941,28.549352 C35.7927085,26.3236754 37.5955009,24.894939 40.0407471,24.2841611 C40.2376851,24.2349696 40.4372473,24.3546024 40.4864818,24.5513685 C40.5357163,24.7481345 40.415979,24.9475225 40.219041,24.9967141 C37.789714,25.6035156 36.0681589,27.0759245 35.0363648,29.4407426 C39.6707249,29.528275 42.9791116,28.3340321 44.9912882,25.876852 C47.0720451,23.3359246 48.0300404,20.3521051 47.8678613,16.9077166 C44.6420246,16.7432677 41.6443253,17.585136 38.8635319,19.43738 C36.2755786,21.161176 34.8650191,24.1873127 34.6464941,28.549352 Z M34.0261107,38.8877286 C32.1741997,38.9857282 30.1023555,38.8961145 27.810435,38.6201571 C26.3173518,40.7650402 24.4450757,41.8688354 22.2169731,41.9000997 C20.203444,43.0498453 19.197253,44.8472709 19.1790957,47.340494 C23.22948,49.2754541 28.4858814,50.1580674 34.9527585,49.9808162 C37.0697833,49.6762811 37.5569583,49.2400595 37.5569583,48.1438868 C37.5569583,47.710481 36.7533849,47.409404 34.9840225,47.409404 L29.4705886,47.409404 L29.4101618,47.4044073 C27.7821751,47.1333131 26.8976528,46.3968546 26.8976528,45.2059557 C26.8976528,43.9687189 27.9467665,43.3697487 29.8165669,43.3703824 C35.4459766,43.0395297 40.4832548,43.0306035 44.9291638,43.3444716 L40.7515281,37.2440263 C39.0872552,38.1407136 37.005641,38.677516 34.5063108,38.8577567 C34.4400014,38.9227629 34.3491354,38.962852 34.248898,38.962852 C34.1651387,38.962852 34.087923,38.9348601 34.0261107,38.8877286 Z M58.0149974,46.5195751 C51.4690818,44.1936603 42.0809452,43.3853189 29.8381509,44.1042315 C28.2989543,44.1042315 27.6327773,44.4845717 27.6327773,45.2059557 C27.6327773,45.9678809 28.2096925,46.4539767 29.5014097,46.6749213 L34.9840225,46.6749213 C37.1353241,46.6749213 38.2920828,47.1083271 38.2920828,48.1438868 C38.2920828,49.6556418 37.4998756,50.3592112 35.0360036,50.7108856 L34.9942286,50.714435 C26.1075836,50.9610708 19.4143954,49.232087 14.9255944,45.509054 C13.3994433,44.6444329 12.392611,44.6313152 11.7910729,45.3787113 C11.6254925,45.9490655 11.8315399,46.526741 12.4550683,47.1497252 C13.1838601,47.8778807 16.2481126,50.6945321 21.621643,55.5756091 C24.7111277,58.1875064 28.7571243,58.9008825 33.7962007,57.7021498 C38.9176967,56.4838104 45.8447547,55.3877371 54.580165,54.4127932 L58.0149974,46.5195751 Z" id="path-3"></path>
    </defs>
    <g id="Page-1" stroke="none" stroke-width="1" fill="none" fill-rule="evenodd">
        <g id="hand-leaf" transform="translate(-11.000000, -11.000000)">
            <mask id="mask-2" fill="white">
                <use xlink:href="#path-1"></use>
            </mask>
            <g id="Mask"></g>
            <mask id="mask-4" fill="white">
                <use xlink:href="#path-3"></use>
            </mask>
            <use id="Mask" fill="#326F1F" fill-rule="nonzero" xlink:href="#path-3"></use>
        </g>
    </g>
</svg>